<?xml version="1.0" encoding="UTF-8" standalone="no"?>
<!-- Created with Inkscape (http://www.inkscape.org/) -->

<svg
   width="512"
   height="512"
   viewBox="0 0 512 512"
   version="1.1"
   id="svg1"
   inkscape:version="1.4 (1:1.4+202410161351+e7c3feb100)"
   sodipodi:docname="icon_primitives.svg"
   inkscape:export-filename="icon_primitives.png"
   inkscape:export-xdpi="96"
   inkscape:export-ydpi="96"
   xml:space="preserve"
   xmlns:inkscape="http://www.inkscape.org/namespaces/inkscape"
   xmlns:sodipodi="http://sodipodi.sourceforge.net/DTD/sodipodi-0.dtd"
   xmlns:xlink="http://www.w3.org/1999/xlink"
   xmlns="http://www.w3.org/2000/svg"
   xmlns:svg="http://www.w3.org/2000/svg"><sodipodi:namedview
     id="namedview1"
     pagecolor="#505050"
     bordercolor="#ffffff"
     borderopacity="1"
     inkscape:showpageshadow="0"
     inkscape:pageopacity="0"
     inkscape:pagecheckerboard="1"
     inkscape:deskcolor="#505050"
     inkscape:document-units="px"
     inkscape:zoom="0.56830945"
     inkscape:cx="393.27166"
     inkscape:cy="354.56036"
     inkscape:window-width="1920"
     inkscape:window-height="1025"
     inkscape:window-x="1080"
     inkscape:window-y="475"
     inkscape:window-maximized="1"
     inkscape:current-layer="layer1" /><defs
     id="defs1"><linearGradient
       id="linearGradient2"
       inkscape:collect="always"><stop
         style="stop-color:#e1520b;stop-opacity:1;"
         offset="0.49631196"
         id="stop2" /><stop
         style="stop-color:#ffffff;stop-opacity:0;"
         offset="0.75792193"
         id="stop3" /></linearGradient><linearGradient
       inkscape:collect="always"
       xlink:href="#linearGradient2"
       id="linearGradient3"
       x1="34.14711"
       y1="256"
       x2="477.85289"
       y2="256"
       gradientUnits="userSpaceOnUse"
       gradientTransform="matrix(0.75699689,0,0,0.75699689,62.208795,62.208795)" /></defs><g
     inkscape:label="Layer 1"
     inkscape:groupmode="layer"
     id="layer1"><rect
       style="fill:#db8119;stroke-width:2;stroke-linejoin:round;fill-opacity:1"
       id="rect1"
       width="512"
       height="512"
       x="0"
       y="0" /><circle
       style="fill:#9d1409;fill-opacity:1;stroke:url(#linearGradient3);stroke-width:64;stroke-linejoin:round;stroke-dasharray:none;stroke-opacity:1"
       id="path1"
       cx="256"
       cy="256"
       r="167.18495" /><circle
       style="fill:#9d1409;fill-opacity:1;stroke:none;stroke-width:12.1119;stroke-linejoin:round;stroke-dasharray:none;stroke-opacity:1"
       id="circle3"
       cx="256"
       cy="256"
       r="167.18495" /><ellipse
       style="fill:#791009;fill-opacity:1;stroke:none;stroke-width:8;stroke-linejoin:round;stroke-dasharray:none;stroke-opacity:1"
       id="path7"
       cx="203.23434"
       cy="140.76839"
       rx="31.672886"
       ry="13.197036" /><ellipse
       style="fill:#791009;fill-opacity:1;stroke:none;stroke-width:6.0074;stroke-linejoin:round;stroke-dasharray:none;stroke-opacity:1"
       id="ellipse7"
       cx="319.36826"
       cy="171.12157"
       rx="25.514269"
       ry="9.2379255" /><ellipse
       style="fill:#791009;fill-opacity:1;stroke:none;stroke-width:9.72754;stroke-linejoin:round;stroke-dasharray:none;stroke-opacity:1"
       id="ellipse8"
       cx="161.88364"
       cy="217.29994"
       rx="41.350712"
       ry="14.945395" /><ellipse
       style="fill:#791009;fill-opacity:1;stroke:none;stroke-width:5.06651;stroke-linejoin:round;stroke-dasharray:none;stroke-opacity:1"
       id="ellipse9"
       cx="234.90723"
       cy="185.20403"
       rx="22.434961"
       ry="7.4726954" /><ellipse
       style="fill:#791009;fill-opacity:1;stroke:none;stroke-width:8.22665;stroke-linejoin:round;stroke-dasharray:none;stroke-opacity:1"
       id="ellipse10"
       cx="203.23434"
       cy="331.98386"
       rx="31.67288"
       ry="13.955319" /><ellipse
       style="fill:#791009;fill-opacity:1;stroke:none;stroke-width:8.22665;stroke-linejoin:round;stroke-dasharray:none;stroke-opacity:1"
       id="ellipse11"
       cx="287.67288"
       cy="269.95532"
       rx="31.67288"
       ry="13.955319" /><circle
       style="fill:#0091e7;fill-opacity:1;stroke:none;stroke-width:14.0444;stroke-linejoin:round;stroke-dasharray:none;stroke-opacity:1"
       id="path11"
       cx="289.23502"
       cy="137.46912"
       r="17.376104" /><path
       style="fill:none;fill-opacity:1;stroke:#00c2d5;stroke-width:16;stroke-linejoin:round;stroke-dasharray:none;stroke-opacity:1;stroke-linecap:round"
       d="M 289.23502,137.46912 556.137,-129.43287"
       id="path12" /><g
       id="g13"><circle
         style="fill:#0091e7;fill-opacity:1;stroke:none;stroke-width:14.0444;stroke-linejoin:round;stroke-dasharray:none;stroke-opacity:1"
         id="circle12"
         cx="289.23502"
         cy="137.46912"
         r="17.376104" /><path
         style="fill:none;fill-opacity:1;stroke:#00c2d5;stroke-width:16;stroke-linejoin:round;stroke-dasharray:none;stroke-opacity:1;stroke-linecap:round"
         d="M 289.23502,137.46912 556.137,-129.43287"
         id="path13" /></g><g
       id="g14"
       transform="matrix(0.61470015,0,0,0.61470015,198.24155,114.74132)"><circle
         style="fill:#0091e7;fill-opacity:1;stroke:none;stroke-width:14.0444;stroke-linejoin:round;stroke-dasharray:none;stroke-opacity:1"
         id="circle13"
         cx="289.23502"
         cy="137.46912"
         r="17.376104" /><path
         style="fill:none;fill-opacity:1;stroke:#00c2d5;stroke-width:16;stroke-linecap:round;stroke-linejoin:round;stroke-dasharray:none;stroke-opacity:1"
         d="M 289.23502,137.46912 556.137,-129.43287"
         id="path14" /></g><g
       id="g15"
       transform="matrix(0.78928914,0,0,0.78928914,-2.1030212,2.3662201)"><circle
         style="fill:#0091e7;fill-opacity:1;stroke:none;stroke-width:14.0444;stroke-linejoin:round;stroke-dasharray:none;stroke-opacity:1"
         id="circle14"
         cx="289.23502"
         cy="137.46912"
         r="17.376104" /><path
         style="fill:none;fill-opacity:1;stroke:#00c2d5;stroke-width:16;stroke-linecap:round;stroke-linejoin:round;stroke-dasharray:none;stroke-opacity:1"
         d="M 289.23502,137.46912 556.137,-129.43287"
         id="path15" /></g><g
       id="g16"
       transform="matrix(1.1685687,0,0,1.1685687,-97.735238,93.551067)"><circle
         style="fill:#0091e7;fill-opacity:1;stroke:none;stroke-width:14.0444;stroke-linejoin:round;stroke-dasharray:none;stroke-opacity:1"
         id="circle15"
         cx="289.23502"
         cy="137.46912"
         r="17.376104" /><path
         style="fill:none;fill-opacity:1;stroke:#00c2d5;stroke-width:16;stroke-linecap:round;stroke-linejoin:round;stroke-dasharray:none;stroke-opacity:1"
         d="M 289.23502,137.46912 556.137,-129.43287"
         id="path16" /></g><g
       id="g17"
       transform="matrix(0.90367504,0,0,0.90367504,54.340474,228.70744)"><circle
         style="fill:#0091e7;fill-opacity:1;stroke:none;stroke-width:14.0444;stroke-linejoin:round;stroke-dasharray:none;stroke-opacity:1"
         id="circle16"
         cx="289.23502"
         cy="137.46912"
         r="17.376104" /><path
         style="fill:none;fill-opacity:1;stroke:#00c2d5;stroke-width:16;stroke-linecap:round;stroke-linejoin:round;stroke-dasharray:none;stroke-opacity:1"
         d="M 289.23502,137.46912 556.137,-129.43287"
         id="path17" /></g><g
       style="fill:#3170aa;fill-opacity:1;stroke:#db8119;stroke-width:3.09067;stroke-dasharray:none;stroke-opacity:1"
       id="g6"
       transform="matrix(5.8255126,0,0,5.8255126,-3.826629,242.01617)"><g
         id="g5"
         style="fill:#3170aa;fill-opacity:1;stroke:#db8119;stroke-width:3.09067;stroke-dasharray:none;stroke-opacity:1">
	<g
   id="g4"
   style="fill:#3170aa;fill-opacity:1;stroke:#db8119;stroke-width:3.09067;stroke-dasharray:none;stroke-opacity:1">
		<path
   d="m 43.454,18.443 h -2.437 c -0.453,-1.766 -1.16,-3.42 -2.082,-4.933 l 1.752,-1.756 C 41.16,11.281 41.42,10.65 41.42,9.98 41.42,9.311 41.158,8.679 40.687,8.207 L 37.767,5.29 C 36.82,4.342 35.165,4.343 34.222,5.289 L 32.396,7.104 C 30.9,6.232 29.296,5.56 27.529,5.128 V 2.52 C 27.529,1.137 26.424,0 25.041,0 H 20.913 C 19.53,0 18.442,1.137 18.442,2.52 v 2.607 c -1.766,0.431 -3.38,1.104 -4.878,1.977 L 11.739,5.289 C 10.793,4.341 9.137,4.342 8.188,5.288 L 5.27,8.205 C 4.802,8.672 4.535,9.318 4.535,9.978 c 0,0.669 0.259,1.299 0.733,1.772 L 7.02,13.51 C 6.099,15.023 5.391,16.677 4.939,18.443 H 2.501 C 1.117,18.443 0,19.555 0,20.935 v 4.125 c 0,1.384 1.117,2.471 2.501,2.471 h 2.438 c 0.452,1.766 1.159,3.43 2.079,4.943 l -1.752,1.763 c -0.474,0.473 -0.734,1.106 -0.734,1.776 0,0.67 0.261,1.303 0.734,1.776 l 2.92,2.919 c 0.474,0.473 1.103,0.733 1.772,0.733 0.669,0 1.299,-0.261 1.773,-0.733 l 1.833,-1.816 c 1.498,0.873 3.112,1.545 4.878,1.978 v 2.604 c 0,1.383 1.088,2.498 2.471,2.498 h 4.128 c 1.383,0 2.488,-1.115 2.488,-2.498 v -2.605 c 1.767,-0.432 3.371,-1.104 4.869,-1.977 l 1.817,1.812 c 0.474,0.475 1.104,0.735 1.775,0.735 0.67,0 1.301,-0.261 1.774,-0.733 l 2.92,-2.917 c 0.473,-0.472 0.732,-1.103 0.734,-1.772 0,-0.67 -0.262,-1.299 -0.734,-1.773 l -1.75,-1.77 c 0.92,-1.514 1.627,-3.179 2.08,-4.943 h 2.438 c 1.383,0 2.52,-1.087 2.52,-2.471 v -4.125 c 10e-4,-1.38 -1.135,-2.492 -2.518,-2.492 z M 22.976,30.85 c -4.378,0 -7.928,-3.517 -7.928,-7.852 0,-4.338 3.55,-7.85 7.928,-7.85 4.379,0 7.931,3.512 7.931,7.85 -0.001,4.336 -3.552,7.852 -7.931,7.852 z"
   id="path3"
   style="fill:#3170aa;fill-opacity:1;stroke:#db8119;stroke-width:3.09067;stroke-dasharray:none;stroke-opacity:1" />
	</g>
</g></g><g
       style="fill:#3170aa;fill-opacity:1;stroke:#db8119;stroke-width:3.09067;stroke-dasharray:none;stroke-opacity:1"
       id="g9"
       transform="matrix(4.5305775,0.88713441,-0.88713441,4.5305775,16.092181,38.823354)"><g
         id="g8"
         style="fill:#3170aa;fill-opacity:1;stroke:#db8119;stroke-width:3.09067;stroke-dasharray:none;stroke-opacity:1">
	<g
   id="g7"
   style="fill:#3170aa;fill-opacity:1;stroke:#db8119;stroke-width:3.09067;stroke-dasharray:none;stroke-opacity:1">
		<path
   d="m 43.454,18.443 h -2.437 c -0.453,-1.766 -1.16,-3.42 -2.082,-4.933 l 1.752,-1.756 C 41.16,11.281 41.42,10.65 41.42,9.98 41.42,9.311 41.158,8.679 40.687,8.207 L 37.767,5.29 C 36.82,4.342 35.165,4.343 34.222,5.289 L 32.396,7.104 C 30.9,6.232 29.296,5.56 27.529,5.128 V 2.52 C 27.529,1.137 26.424,0 25.041,0 H 20.913 C 19.53,0 18.442,1.137 18.442,2.52 v 2.607 c -1.766,0.431 -3.38,1.104 -4.878,1.977 L 11.739,5.289 C 10.793,4.341 9.137,4.342 8.188,5.288 L 5.27,8.205 C 4.802,8.672 4.535,9.318 4.535,9.978 c 0,0.669 0.259,1.299 0.733,1.772 L 7.02,13.51 C 6.099,15.023 5.391,16.677 4.939,18.443 H 2.501 C 1.117,18.443 0,19.555 0,20.935 v 4.125 c 0,1.384 1.117,2.471 2.501,2.471 h 2.438 c 0.452,1.766 1.159,3.43 2.079,4.943 l -1.752,1.763 c -0.474,0.473 -0.734,1.106 -0.734,1.776 0,0.67 0.261,1.303 0.734,1.776 l 2.92,2.919 c 0.474,0.473 1.103,0.733 1.772,0.733 0.669,0 1.299,-0.261 1.773,-0.733 l 1.833,-1.816 c 1.498,0.873 3.112,1.545 4.878,1.978 v 2.604 c 0,1.383 1.088,2.498 2.471,2.498 h 4.128 c 1.383,0 2.488,-1.115 2.488,-2.498 v -2.605 c 1.767,-0.432 3.371,-1.104 4.869,-1.977 l 1.817,1.812 c 0.474,0.475 1.104,0.735 1.775,0.735 0.67,0 1.301,-0.261 1.774,-0.733 l 2.92,-2.917 c 0.473,-0.472 0.732,-1.103 0.734,-1.772 0,-0.67 -0.262,-1.299 -0.734,-1.773 l -1.75,-1.77 c 0.92,-1.514 1.627,-3.179 2.08,-4.943 h 2.438 c 1.383,0 2.52,-1.087 2.52,-2.471 v -4.125 c 10e-4,-1.38 -1.135,-2.492 -2.518,-2.492 z M 22.976,30.85 c -4.378,0 -7.928,-3.517 -7.928,-7.852 0,-4.338 3.55,-7.85 7.928,-7.85 4.379,0 7.931,3.512 7.931,7.85 -0.001,4.336 -3.552,7.852 -7.931,7.852 z"
   id="path6"
   style="fill:#3170aa;fill-opacity:1;stroke:#db8119;stroke-width:3.09067;stroke-dasharray:none;stroke-opacity:1" />
	</g>
</g></g></g></svg>
